<?xml version="1.0" encoding="utf-8"?>
<!-- Generator: Adobe Illustrator 23.0.1, SVG Export Plug-In . SVG Version: 6.00 Build 0)  -->
<svg version="1.1" id="Layer_1" xmlns="http://www.w3.org/2000/svg" xmlns:xlink="http://www.w3.org/1999/xlink" x="0px" y="0px"
	 viewBox="0 0 266.8 200.8" style="enable-background:new 0 0 266.8 200.8;" xml:space="preserve">
<style type="text/css">
	.st0{fill:#F4F2F2;stroke:#292929;stroke-width:3;stroke-miterlimit:10;}
	.st1{fill:#F4F2F2;stroke:#292929;stroke-width:2;stroke-miterlimit:10;}
</style>
<g>
	<g>
		<path class="st0" d="M28.7,134.9H45V31.6H28.7v-9.2h43.1v9.3H55.6v45.2h72.5V31.6h-16.3v-9.2h43.1v9.3h-16.3V135h16.3v9.3h-43.1
			V135h16.3V86.3H55.6V135h16.3v9.3H28.7V134.9z"/>
	</g>
	<g>
		<path class="st0" d="M151.5,76.8h59.8V31.6H195v-9.2h43.1v9.3h-16.3V135h16.3v9.3H195V135h16.3V86.3h-59.8V76.8z"/>
	</g>
</g>
<g>
	<path class="st1" d="M28.9,159.6c0-0.3,0.2-0.5,0.5-0.5h3.2c0.3,0,0.5,0.2,0.5,0.5v6.8h7.7v-6.8c0-0.3,0.2-0.5,0.5-0.5h3.2
		c0.3,0,0.5,0.2,0.5,0.5v17.8c0,0.3-0.2,0.5-0.5,0.5h-3.2c-0.3,0-0.5-0.2-0.5-0.5v-7h-7.7v7.1c0,0.3-0.2,0.5-0.5,0.5h-3.2
		c-0.3,0-0.5-0.2-0.5-0.5C28.9,177.5,28.9,159.6,28.9,159.6z"/>
	<path class="st1" d="M60.6,158.9c5.4,0,9.7,4.3,9.7,9.7s-4.3,9.7-9.7,9.7s-9.7-4.3-9.7-9.7C51,163.2,55.2,158.9,60.6,158.9z
		 M60.6,173.9c3,0,5.4-2.4,5.4-5.3c0-3-2.4-5.4-5.4-5.4c-2.9,0-5.4,2.4-5.4,5.4C55.3,171.5,57.7,173.9,60.6,173.9z"/>
	<path class="st1" d="M76.2,159.6c0-0.3,0.2-0.5,0.5-0.5h6.5c3.3,0,6,2.7,6,5.9c0,3.3-2.7,6-6,6h-2.8v6.3c0,0.3-0.2,0.5-0.5,0.5
		h-3.2c-0.3,0-0.5-0.2-0.5-0.5V159.6z M83,167.2c1.2,0,2.1-0.9,2.1-2.1c0-1.1-1-2-2.1-2h-2.6v4.1H83z"/>
	<path class="st1" d="M94.7,159.6c0-0.3,0.2-0.5,0.5-0.5h6.5c3.3,0,6,2.7,6,5.9c0,3.3-2.7,6-6,6h-2.8v6.3c0,0.3-0.2,0.5-0.5,0.5
		h-3.2c-0.3,0-0.5-0.2-0.5-0.5V159.6z M101.4,167.2c1.2,0,2.1-0.9,2.1-2.1c0-1.1-1-2-2.1-2h-2.6v4.1H101.4z"/>
	<path class="st1" d="M112.1,175.4l1.3-2.2c0.2-0.4,0.7-0.3,0.9-0.2c0.1,0.1,2,1.5,3.8,1.5c1.1,0,1.9-0.7,1.9-1.6
		c0-1.1-0.9-2-2.8-2.7c-2.3-0.9-5.2-2.7-5.2-5.9c0-2.7,2.1-5.3,6.2-5.3c2.8,0,4.9,1.4,5.8,2c0.3,0.2,0.3,0.7,0.2,0.9l-1.4,2.1
		c-0.2,0.3-0.7,0.5-0.9,0.4s-2.2-1.6-3.8-1.6c-1,0-1.7,0.6-1.7,1.4c0,1,0.8,1.7,2.9,2.6c2.1,0.8,5.4,2.5,5.4,6.1
		c0,2.8-2.4,5.6-6.3,5.6c-3.5,0-5.4-1.5-6-2.1C112,175.9,111.9,175.8,112.1,175.4z"/>
	<path class="st1" d="M139.2,159.6c0-0.3,0.2-0.5,0.5-0.5h3.2c0.3,0,0.5,0.2,0.5,0.5v6.8h7.7v-6.8c0-0.3,0.2-0.5,0.5-0.5h3.2
		c0.3,0,0.5,0.2,0.5,0.5v17.8c0,0.3-0.2,0.5-0.5,0.5h-3.2c-0.3,0-0.5-0.2-0.5-0.5v-7h-7.7v7.1c0,0.3-0.2,0.5-0.5,0.5h-3.2
		c-0.3,0-0.5-0.2-0.5-0.5V159.6z"/>
	<path class="st1" d="M170.9,158.9c5.4,0,9.7,4.3,9.7,9.7s-4.3,9.7-9.7,9.7s-9.7-4.3-9.7-9.7C161.3,163.2,165.6,158.9,170.9,158.9z
		 M170.9,173.9c3,0,5.4-2.4,5.4-5.3c0-3-2.4-5.4-5.4-5.4c-2.9,0-5.4,2.4-5.4,5.4C165.6,171.5,168,173.9,170.9,173.9z"/>
	<path class="st1" d="M186.3,159.6c0-0.3,0.2-0.5,0.5-0.5h3.3c0.3,0,0.5,0.2,0.5,0.5v10.9c0,1.9,1.4,3.4,3.3,3.4
		c1.9,0,3.4-1.5,3.4-3.4v-10.9c0-0.3,0.2-0.5,0.5-0.5h3.3c0.3,0,0.5,0.2,0.5,0.5v11.1c0,4.1-3.4,7.5-7.7,7.5c-4.2,0-7.6-3.4-7.6-7.5
		V159.6z"/>
	<path class="st1" d="M207.5,175.4l1.3-2.2c0.2-0.4,0.7-0.3,0.9-0.2c0.1,0.1,2,1.5,3.8,1.5c1.1,0,1.9-0.7,1.9-1.6
		c0-1.1-0.9-2-2.8-2.7c-2.3-0.9-5.2-2.7-5.2-5.9c0-2.7,2.1-5.3,6.2-5.3c2.8,0,4.9,1.4,5.8,2c0.3,0.2,0.3,0.7,0.2,0.9l-1.4,2.1
		c-0.2,0.3-0.7,0.5-0.9,0.4s-2.2-1.6-3.8-1.6c-1,0-1.7,0.6-1.7,1.4c0,1,0.8,1.7,2.9,2.6c2.1,0.8,5.4,2.5,5.4,6.1
		c0,2.8-2.4,5.6-6.3,5.6c-3.5,0-5.4-1.5-6-2.1C207.4,175.9,207.3,175.8,207.5,175.4z"/>
	<path class="st1" d="M226,159.6c0-0.3,0.2-0.5,0.5-0.5h11.1c0.3,0,0.5,0.2,0.5,0.5v2.9c0,0.3-0.2,0.5-0.5,0.5h-7.4v3.3h6.1
		c0.3,0,0.5,0.2,0.5,0.5v2.9c0,0.3-0.2,0.5-0.5,0.5h-6.1v3.6h7.4c0.3,0,0.5,0.2,0.5,0.5v2.9c0,0.3-0.2,0.5-0.5,0.5h-11.1
		c-0.3,0-0.5-0.2-0.5-0.5V159.6L226,159.6z"/>
</g>
</svg>
