<?xml version="1.0" standalone="no"?>
<!DOCTYPE svg PUBLIC "-//W3C//DTD SVG 20010904//EN"
 "http://www.w3.org/TR/2001/REC-SVG-20010904/DTD/svg10.dtd">
<svg version="1.0" xmlns="http://www.w3.org/2000/svg"
 width="700.000000pt" height="700.000000pt" viewBox="0 0 700.000000 700.000000"
 preserveAspectRatio="xMidYMid meet">
<metadata>
Created by potrace 1.11, written by Peter Selinger 2001-2013
</metadata>
<g transform="translate(0.000000,700.000000) scale(0.100000,-0.100000)"
fill="#000000" stroke="none">
<path d="M150 5294 l0 -152 233 -1 c127 0 244 0 260 0 l27 -1 0 -1664 0 -1665
-232 1 c-128 0 -245 -1 -260 -1 l-28 -1 0 -145 c0 -144 0 -145 23 -146 29 0
1259 0 1317 0 l45 1 -2 137 c-1 76 -2 143 -2 149 -1 8 -72 12 -248 12 -137 0
-253 1 -260 1 -9 1 -12 187 -12 784 l0 783 1164 0 1164 0 0 -783 c0 -730 -1
-783 -17 -784 -9 0 -126 -1 -259 -1 l-243 0 -1 -27 c-1 -41 -1 -244 0 -261 1
-14 340 -17 1304 -11 l77 1 0 149 0 149 -255 0 c-141 0 -258 2 -261 5 -8 8 -7
3308 1 3315 4 4 118 8 253 9 136 0 250 2 255 2 4 1 7 68 7 149 l0 148 -684 -1
c-376 0 -688 -3 -692 -7 -9 -10 -12 -258 -3 -278 6 -13 45 -15 262 -14 l256 0
0 -728 0 -728 -1164 0 -1165 0 3 728 2 727 253 1 c173 0 256 4 260 11 5 9 7
221 3 278 -1 7 -223 11 -691 11 l-690 0 0 -152z"/>
<path d="M5482 5296 l3 -150 252 -1 c138 0 254 -3 257 -6 5 -5 7 -323 6 -1296
l0 -153 -958 0 -958 0 0 -147 c0 -110 3 -149 13 -153 7 -3 438 -5 958 -4 l945
0 0 -335 c1 -800 -1 -1225 -5 -1229 -2 -3 -119 -5 -260 -5 l-255 0 0 -148 0
-149 33 -1 c181 -3 1340 1 1344 5 4 4 7 170 4 267 l-1 27 -237 0 c-131 0 -248
1 -260 1 l-22 1 2 1663 2 1662 257 0 c239 0 258 1 259 18 1 22 1 242 0 265 -1
16 -38 17 -691 18 l-690 0 2 -150z"/>
</g>
</svg>
